<svg xmlns="http://www.w3.org/2000/svg" viewBox="0 0 1918.35 1827"><defs><style>.cls-1,.cls-17,.cls-5{fill:#9cbcae;stroke:#9cbcae;}.cls-1,.cls-10,.cls-11,.cls-12,.cls-14,.cls-15,.cls-16,.cls-17,.cls-5,.cls-6,.cls-7,.cls-8,.cls-9{stroke-miterlimit:10;}.cls-2{fill:#ff4a1a;}.cls-3,.cls-6{fill:#ffc533;}.cls-10,.cls-4{fill:#cdadc5;}.cls-10,.cls-14,.cls-5,.cls-7{stroke-width:6px;}.cls-12,.cls-6{stroke:#ffc533;}.cls-6{stroke-width:5px;}.cls-11,.cls-12,.cls-15,.cls-16,.cls-7,.cls-8,.cls-9{fill:none;}.cls-14,.cls-15,.cls-16,.cls-7,.cls-8,.cls-9{stroke:#ff4a1a;}.cls-8{stroke-width:6.1px;}.cls-12,.cls-9{stroke-width:3px;}.cls-10{stroke:#cdadc5;}.cls-11{stroke:#000;stroke-width:2px;}.cls-13{fill:#5b5309;}.cls-14{fill:#a741aa;}.cls-15{stroke-width:6.5px;}.cls-16{stroke-width:6.4px;}.cls-17{stroke-width:1.4px;}</style></defs><g id="Calque_2" data-name="Calque 2"><g id="Calque_1-2" data-name="Calque 1"><rect class="cls-1" x="1369.81" y="653.5" width="771" height="323" transform="translate(2570.31 -940.31) rotate(90)"/><rect class="cls-2" x="684.31" y="-675" width="548" height="1916" transform="translate(1241.31 -675.31) rotate(90)"/><rect class="cls-3" x="1595.36" y="540" width="322.9" height="661"/><rect class="cls-4" x="1281.06" y="1189.75" width="952.5" height="322" transform="translate(3108.06 -406.56) rotate(90)"/><path class="cls-3" d="M1596.32,630v571c0-180.83,144.16-327.43,322-327.43V630Z"/><rect class="cls-1" x="-118.19" y="676.25" width="319" height="81.5" transform="translate(758.31 675.69) rotate(90)"/><rect class="cls-1" x="1.31" y="557" width="1593.5" height="110.5"/><path class="cls-1" d="M7,640V876.17c175.33,0,317.46,142.13,317.46,317.45,0-175.32,142.13-317.45,317.46-317.45s317.46,142.13,317.46,317.45c0-175.32,142.13-317.45,317.46-317.45s317.46,142.13,317.46,317.45V640Z"/><path class="cls-5" d="M1593.9,3v553.9c0-175.42,143.84-317.62,321.28-317.62V3Z"/><path class="cls-6" d="M1915.85,556.91V239.17c-175.48,0-317.74,142.26-317.74,317.74"/><line class="cls-7" x1="322.77" y1="573.98" x2="322.31" y2="616"/><line class="cls-7" x1="957.63" y1="573.98" x2="957.31" y2="616"/><line class="cls-7" x1="1592.5" y1="573.98" x2="1592.31" y2="616"/><line class="cls-7" x1="642.12" y1="254.63" x2="656.17" y2="254.74"/><line class="cls-8" x1="1918.31" y1="874" x2="1886.92" y2="873.81"/><rect class="cls-4" x="-81.97" y="82.28" width="242" height="77.43" transform="translate(160.03 81.97) rotate(90)"/><circle class="cls-9" cx="1274.83" cy="556.62" r="317.46"/><circle class="cls-9" cx="639.91" cy="556.62" r="317.46"/><path class="cls-7" d="M322.45,556.62C322.45,732,180.32,874.08,5,874.08H639.91C464.58,874.08,322.45,732,322.45,556.62Z"/><path class="cls-7" d="M957.37,556.62c0,175.33-142.13,317.46-317.46,317.46h634.92C1099.5,874.08,957.37,732,957.37,556.62Z"/><path class="cls-10" d="M5,3V239.17c175.33,0,317.46,142.13,317.46,317.45,0-175.32,142.13-317.45,317.46-317.45S957.37,381.3,957.37,556.62c0-175.32,142.13-317.45,317.46-317.45s317.46,142.13,317.46,317.45V3Z"/><path class="cls-7" d="M1592.29,556.62c0,175.33-142.13,317.46-317.46,317.46h634.92C1734.42,874.08,1592.29,732,1592.29,556.62Z"/><line class="cls-11" x1="1197.46" y1="304.48" x2="1197.16" y2="350.51"/><circle cx="1376.43" cy="436.65" r="17.49"/><circle cx="1414" cy="436.94" r="17.49"/><circle class="cls-12" cx="1119.48" cy="405.61" r="18.04"/><line class="cls-12" x1="1411.12" y1="401.94" x2="1560.36" y2="381.81"/><path class="cls-13" d="M1139.28,548.25a2.51,2.51,0,1,0,2.49,2.53A2.51,2.51,0,0,0,1139.28,548.25Z"/><path d="M1494,525.73c-11.27-9.57-29.18-14.38-44-6.84-2.13,1.08-15.24,7.75-18.27,22.6-.06.3-.18.92-.3,1.7-.86,2.82-2.44,5.95-5.45,7.66-3.18,1.81-6.6,1.22-8.07,1l-.58-.07c-7-1.52-11.76-7-11.8-12.49,0-4.56,3.22-9,8-11.51h0a44.82,44.82,0,0,0,8.62-5c10.92-8.1,16.53-27.08,8.9-41.17-8.88-16.39-30.5-16.23-37-16.18-6.81.05-24.62.19-33.77,14-9.06,13.61-5.38,34,5.51,42.69a39.86,39.86,0,0,0,9.07,5.39c5.87,2.73,9.9,7.38,9.53,11.67-.56,6.66-11.63,9.77-14.5,10.57a29.72,29.72,0,0,1-8.23,1.11l.06,0c-3.53,0-6.22,0-8.2.07l-116.79-1.47c.22-5.72,1.41-10.66,1.71-15.16,2.93-44.81-12.91-63.85-5.61-111.76.42-2.71,1.09-4.9,2.18-9.33,13.54-54.88,27.54-62.94,25.07-85.57-1.53-14-9.33-33.66-25.45-39-14.28-4.69-33.26,2.46-37.57,13.24-.9,2.27-.24,2.4-.64,20.48,0,0-.35,15.4.1,15.41.26,0-.79-10.17,3.74-12.46a4.58,4.58,0,0,1,4.16,0c5.09,3.11-.87,21.56-2.55,27.3-8.09,27.69,3,35.55,1.87,94.19-.65,34.16-1,51.25-6.74,63.95-7.16,15.68-18.19,27.72-17.29,48,.24,5.27.64,13.72,6.34,21.39,9.06,12.2,27.75,17.47,40.43,13.5,3.25-1,7.28-3,15.15-4.76,3.38-.75,6.39-1.21,8.86-1.51l97.24.62a97.64,97.64,0,0,1,10,.82c2.56.41,2.15.54,4.86,1,10,1.76,14.62.61,14.62.61,6.67-1.67,10.56-6.86,11.76-8.45a24.09,24.09,0,0,0,4.78-12.66c0-.09,0-1.29,0-2.9,0-1,0-1.14,0-2.38,0-2.7,0-5.17,0-6.46v-.59H1395v1.17l0,2.35,0,3.53v2.35l0,2.93a24.38,24.38,0,0,0,4.13,12.52c1.33,2,4.83,7.11,11.31,8.83,8.36,2.22,16.88-2.82,21-7.63,1.47-1.71,1.79-2.49,2.59-3.46a10.38,10.38,0,0,1,.86-.9c1.13-1.12,6.06-3,14.13-1.38a36.4,36.4,0,0,1,4.34,1.15c.83.33,1.65.64,2.46.92l.81.34-.29-.17a94.16,94.16,0,0,0,10.52,2.71c9.62,2,30.76,6.48,40.16-5.38C1517,564.33,1509.22,538.64,1494,525.73Zm-98.54-24a2.51,2.51,0,1,1,2.53-2.49A2.51,2.51,0,0,1,1395.47,501.77Zm75.7,51.81a2.51,2.51,0,1,1,2.53-2.49A2.51,2.51,0,0,1,1471.17,553.58Z"/><path d="M994.83,814.14a17.41,17.41,0,0,0,1.6,1.76C995.4,814.8,994.84,814.12,994.83,814.14Z"/><path d="M1165.08,538.24a20.68,20.68,0,0,0-4.73-5.9,65.27,65.27,0,0,0-31.85-18.92c-3.19-.78-36.24-8.39-56.31,12.91-10.38,11-12.11,24.21-12.47,29.83l0,0c-.33,10.36-.78,18.64-1.08,23.69-1.78,30.28-5,60.39-.29,80.62,5.14,22.07,11.87,19.48,20,43.43,18.9,55.42-5.4,103.86-32.12,119.78a38.85,38.85,0,0,1-20.42,5.89c-14.42-.21-25.43-9.69-29.38-13.7,4.69,5,19.37,19.2,38.88,19.67,17.24.41,30.33-10,35.76-14.46,41.72-34.12,48.27-106.4,30.24-170.58h0c-10-26.51-27.15-50.61-29.42-74.14-.5-5.14-.57-13.13,5.14-16.71a14.25,14.25,0,0,1,8.38-1.79c1.08.12,3.28.35,4.41,2a3.74,3.74,0,0,1,.38.68c.11.33.26.78.42,1.22,2,5.52,16.25,32.57,41.12,30.39,20-1.75,31.26-21,34.35-33.82C1167.14,553.94,1169.09,545.84,1165.08,538.24Zm-37.18,16.88a2.51,2.51,0,1,1,2.52-2.48A2.5,2.5,0,0,1,1127.9,555.12Z"/><path class="cls-7" d="M325.56,1191.54C325.56,1366.87,183.43,1509,8.1,1509H643C467.69,1509,325.56,1366.87,325.56,1191.54Z"/><path class="cls-7" d="M960.48,1191.54C960.48,1366.87,818.35,1509,643,1509h634.92C1102.61,1509,960.48,1366.87,960.48,1191.54Z"/><path class="cls-7" d="M1595.4,1191.54c0,175.33-142.13,317.46-317.46,317.46h634.92C1737.53,1509,1595.4,1366.87,1595.4,1191.54Z"/><path class="cls-14" d="M1595.4,1827c0-175.33,142.13-317.46,317.46-317.46H1277.94C1453.27,1509.54,1595.4,1651.67,1595.4,1827Z"/><path class="cls-14" d="M960.48,1827c0-175.33,142.13-317.46,317.46-317.46H643C818.35,1509.54,960.48,1651.67,960.48,1827Z"/><path class="cls-14" d="M325.56,1827c0-175.33,142.13-317.46,317.46-317.46H8.1C183.43,1509.54,325.56,1651.67,325.56,1827Z"/><line class="cls-15" x1="1918.31" y1="1509.3" x2="1886.92" y2="1509.11"/><line class="cls-16" x1="15.31" y1="1509.1" x2="0.04" y2="1509.3"/><line class="cls-17" x1="1394.46" y1="557.09" x2="1394.16" y2="603.12"/></g></g></svg>